<svg xmlns="http://www.w3.org/2000/svg" viewBox="0 0 19 19"><style>*{fill:#222;}</style><path d="M15.3 6.83C15 3.37 12.51.67 9.5.67S4 3.37 3.7 6.83a3.67 3.67 0 0 0-2.19 3.39v3.19a3.68 3.68 0 0 0 2.29 3.44c.57.47 2.28 1.6 5.7 1.6s5.13-1.13 5.7-1.6a3.68 3.68 0 0 0 2.29-3.44v-3.19a3.67 3.67 0 0 0-2.19-3.39zM9.5 2.67c1.85 0 3.39 1.67 3.75 3.88h-7.5c.36-2.21 1.9-3.88 3.75-3.88zm6 10.74a1.65 1.65 0 0 1-1.1 1.6 1 1 0 0 0-.43.26s-1.27 1.17-4.46 1.17S5 15.28 5 15.28a1 1 0 0 0-.39-.28 1.65 1.65 0 0 1-1.1-1.6v-3.18A1.59 1.59 0 0 1 5 8.56h9a1.59 1.59 0 0 1 1.5 1.66z"/><rect width="2" height="3" x="8.5" y="10.5"/></svg>