<svg xmlns="http://www.w3.org/2000/svg" viewBox="0 0 19 19"><title>ed-lock</title><style>*{fill:#222;}</style><path d="M15.3,6.83C15,3.37,12.51.67,9.5.67S4,3.37,3.7,6.83a3.67,3.67,0,0,0-2.19,3.39v3.19A3.68,3.68,0,0,0,3.8,16.85c.57.47,2.28,1.6,5.7,1.6s5.13-1.13,5.7-1.6a3.68,3.68,0,0,0,2.29-3.44V10.22A3.67,3.67,0,0,0,15.3,6.83ZM9.5,2.67c1.85,0,3.39,1.67,3.75,3.88H5.75C6.11,4.34,7.65,2.67,9.5,2.67Zm6,10.74a1.65,1.65,0,0,1-1.1,1.6,1,1,0,0,0-.43.26s-1.27,1.17-4.46,1.17S5,15.28,5,15.28A1,1,0,0,0,4.61,15a1.65,1.65,0,0,1-1.1-1.6V10.22A1.59,1.59,0,0,1,5,8.56h9a1.59,1.59,0,0,1,1.5,1.66Z"/><rect x="8.5" y="10.5" width="2" height="3"/></svg>