<svg xmlns="http://www.w3.org/2000/svg" viewBox="0 0 100 100"><rect width="100" height="100" rx="10" fill="#111924" /><g fill="#eee"><path d="m54.356 52.899-9.233 9.19V35.463h9.233v17.436Z"/><path d="M61.43 49.012a15.726 15.726 0 0 1 4.093 10.604c0 8.717-7.067 15.784-15.783 15.784-8.718 0-15.784-7.067-15.784-15.784 0-4.082 1.55-7.802 4.093-10.604l-6.143-6.143a24.378 24.378 0 0 0-6.637 16.747c0 13.515 10.956 24.47 24.471 24.47 13.514 0 24.47-10.955 24.47-24.47a24.374 24.374 0 0 0-6.638-16.747l-6.142 6.143Z"/><path d="M50 15.914c-27.391 0-42.712 20.268-48.322 36.374l7.47 1.981C14.132 42.095 26.8 23.514 50 23.514c23.2 0 35.868 18.581 40.852 30.755l7.47-1.981C92.712 36.182 77.391 15.914 50 15.914"/></g></svg>